{"glyphs":{"0":{"ha":610,"x_min":75,"x_max":532,"o":"m 304 1107 l 304 1107 q 532 908 532 1107 l 532 908 l 532 272 q 304 24 532 24 l 304 24 q 75 279 75 24 l 75 279 l 75 907 q 304 1107 75 1107 z m 203 881 l 203 881 l 203 289 q 307 146 203 145 l 307 146 q 411 289 411 147 l 411 289 l 411 881 q 306 971 412 970 l 306 971 q 203 881 203 972 z "},"1":{"ha":610,"x_min":172,"x_max":414,"o":"m 307 1109 l 307 1109 l 378 1109 q 414 1079 413 1109 l 414 1079 l 413 46 l 413 45 q 379 24 413 24 l 379 24 l 304 24 q 273 46 273 24 l 273 46 l 273 870 q 253 930 273 930 l 253 930 l 207 930 q 172 973 172 930 l 172 973 l 172 1012 q 223 1068 180 1062 l 223 1068 q 286 1098 262 1068 l 286 1098 q 307 1109 294 1107 z "},"2":{"ha":610,"x_min":69,"x_max":538,"o":"m 306 1106 l 306 1106 q 538 886 538 1106 l 538 886 l 538 853 q 433 682 523 763 l 433 682 q 214 208 263 474 l 214 208 q 243 167 206 167 l 243 167 l 500 167 q 538 134 538 167 l 538 134 l 538 60 q 500 23 538 23 l 500 23 l 117 23 q 69 84 69 23 l 69 84 l 69 167 q 295 731 96 500 l 295 731 q 390 834 349 795 l 390 834 q 401 886 401 853 l 401 886 q 305 967 401 967 q 208 886 208 967 l 208 886 q 157 853 202 853 l 157 853 l 116 853 q 69 886 73 853 l 69 886 q 306 1106 69 1106 z "},"3":{"ha":610,"x_min":76,"x_max":536,"o":"m 300 1104 l 321 1104 q 536 911 528 1104 l 536 911 l 536 721 q 515 646 536 680 l 515 646 q 480 592 480 625 l 480 592 q 513 533 479 576 l 513 533 q 536 423 536 497 l 536 423 l 536 227 q 311 24 536 24 l 311 24 q 76 218 76 24 l 76 218 l 76 229 q 107 274 76 274 l 107 274 l 186 274 q 207 237 209 254 l 207 237 q 311 160 215 161 l 311 160 q 407 274 406 162 l 407 274 l 406 423 q 357 512 407 496 l 357 512 q 288 573 288 533 l 288 573 l 288 620 q 357 674 288 646 l 357 674 q 406 772 408 702 l 406 772 l 406 884 q 311 972 406 970 l 311 972 q 206 889 206 972 l 206 889 q 117 857 206 857 l 117 857 q 77 911 76 857 l 77 911 l 77 923 q 300 1104 77 1104 l 300 1104 z "},"4":{"ha":610,"x_min":85,"x_max":536,"o":"m 335 1103 l 460 1103 q 488 1076 488 1103 l 488 1076 l 488 382 q 505 340 488 340 l 505 340 q 536 313 533 340 l 536 313 l 536 254 q 509 221 533 222 l 509 221 q 488 180 488 221 l 488 180 l 488 71 q 448 24 488 24 l 448 24 l 409 24 q 369 70 369 24 l 369 70 l 369 190 q 338 221 369 221 l 338 221 l 123 221 q 85 258 85 222 l 85 258 l 85 328 q 101 404 88 370 l 101 404 l 294 1074 q 335 1103 306 1103 l 335 1103 z m 336 771 l 336 771 q 311 727 324 766 l 311 727 l 210 368 q 259 332 199 332 l 259 332 l 311 332 q 369 377 369 327 l 369 377 l 369 764 q 336 771 369 777 z "},"5":{"ha":610,"x_min":68,"x_max":526,"o":"m 113 1103 l 113 1103 l 487 1103 q 526 1069 526 1103 l 526 1069 l 526 1021 q 492 986 526 986 l 492 986 l 248 986 q 191 951 191 986 l 191 951 l 191 777 q 227 740 191 740 l 227 740 q 316 747 270 753 l 316 747 q 499 633 446 720 l 499 633 q 526 526 526 593 l 526 526 l 526 242 q 305 24 526 26 l 305 24 q 68 216 91 35 l 68 216 q 107 258 68 258 l 107 258 q 199 216 191 258 l 199 216 q 305 157 229 159 l 305 157 q 410 216 393 159 l 410 216 l 410 545 q 359 621 408 586 l 359 621 q 302 634 328 634 l 302 634 q 218 602 256 634 l 218 602 q 191 537 191 572 l 191 537 q 96 517 191 519 l 96 517 q 68 559 68 517 l 68 559 l 68 1061 q 113 1103 68 1103 z "},"6":{"ha":609,"x_min":75,"x_max":528,"o":"m 273 1109 l 324 1109 q 505 992 452 1109 l 505 992 q 526 916 521 956 l 526 916 q 499 871 526 883 l 499 871 q 406 884 406 863 l 406 884 q 300 987 407 987 l 300 987 q 199 871 199 987 l 199 871 l 201 689 q 226 656 206 660 l 226 656 q 302 661 265 664 l 302 661 q 528 453 528 655 l 528 453 l 528 242 q 328 24 528 24 l 328 24 l 287 24 q 75 238 77 24 l 75 238 l 75 880 q 273 1109 75 1109 l 273 1109 z m 305 518 q 205 431 205 518 l 205 431 l 205 244 q 305 149 205 151 l 305 149 q 410 220 410 151 l 410 220 l 410 431 q 305 518 407 517 l 305 518 z "},"7":{"ha":609,"x_min":68,"x_max":526,"o":"m 106 1104 l 106 1104 l 476 1104 q 526 1083 526 1104 l 526 1083 l 526 1023 q 505 933 526 968 l 505 933 q 417 684 478 894 q 315 130 356 474 l 315 130 q 272 25 305 25 l 272 25 l 231 24 q 171 65 171 24 l 171 65 q 248 536 191 315 q 361 911 305 758 l 361 911 l 378 968 q 345 987 374 987 l 345 987 l 108 987 q 68 1012 77 987 l 68 1012 l 68 1085 q 106 1104 77 1104 z "},"8":{"ha":612,"x_min":68,"x_max":528,"o":"m 303 1107 l 306 1107 q 528 908 528 1107 l 528 908 l 528 713 q 496 631 528 659 l 496 631 l 476 614 q 476 593 463 604 l 476 593 l 497 572 q 528 493 528 538 l 528 493 l 528 272 q 303 22 528 24 l 303 22 q 68 279 74 22 l 68 279 l 68 492 q 102 572 68 538 l 102 572 l 124 593 q 124 613 135 604 l 124 613 l 100 633 q 68 713 68 659 l 68 713 l 68 907 q 303 1107 68 1107 l 303 1107 z m 190 878 l 190 795 q 304 659 190 659 l 304 659 q 406 793 406 659 l 406 793 l 406 878 q 304 985 406 985 l 304 985 q 190 878 190 985 l 190 878 z m 190 433 l 190 254 q 304 142 190 142 l 304 142 q 406 254 406 142 l 406 254 l 406 431 q 304 538 406 538 l 304 538 q 190 433 190 538 l 190 433 z "},"9":{"ha":609,"x_min":75,"x_max":528,"o":"m 331 24 l 279 24 q 99 141 151 24 l 99 141 q 77 218 83 177 l 77 218 q 104 262 77 250 l 104 262 q 198 250 198 271 l 198 250 q 304 146 197 146 l 304 146 q 404 262 404 146 l 404 262 l 402 465 q 378 498 397 494 l 378 498 q 302 493 338 490 l 302 493 q 75 701 75 498 l 75 701 l 75 891 q 275 1109 75 1109 l 275 1109 l 317 1109 q 528 895 526 1109 l 528 895 l 528 253 q 331 24 528 24 l 331 24 z m 298 635 q 399 723 399 635 l 399 723 l 399 889 q 298 984 399 982 l 298 984 q 193 913 193 983 l 193 913 l 193 723 q 298 635 197 637 l 298 635 z "}," ":{"ha":610,"x_min":null,"x_max":null,"o":""}," ":{"ha":610,"x_min":null,"x_max":null,"o":""},"!":{"ha":386,"x_min":null,"x_max":null,"o":""},"\"":{"ha":493,"x_min":null,"x_max":null,"o":""},"#":{"ha":772,"x_min":null,"x_max":null,"o":""},"$":{"ha":772,"x_min":null,"x_max":null,"o":""},"%":{"ha":1235,"x_min":null,"x_max":null,"o":""},"&":{"ha":926,"x_min":null,"x_max":null,"o":""},"'":{"ha":265,"x_min":null,"x_max":null,"o":""},"(":{"ha":463,"x_min":null,"x_max":null,"o":""},")":{"ha":463,"x_min":null,"x_max":null,"o":""},"*":{"ha":541,"x_min":null,"x_max":null,"o":""},"+":{"ha":811,"x_min":null,"x_max":null,"o":""},",":{"ha":386,"x_min":null,"x_max":null,"o":""},"-":{"ha":612,"x_min":195,"x_max":417,"o":"m 254 685 l 254 685 l 357 685 q 417 637 417 685 l 417 637 l 417 559 q 356 510 417 510 l 356 510 l 252 510 q 195 561 195 510 l 195 561 l 195 639 q 254 685 195 685 z "},"­":{"ha":612,"x_min":195,"x_max":417,"o":"m 254 685 l 254 685 l 357 685 q 417 637 417 685 l 417 637 l 417 559 q 356 510 417 510 l 356 510 l 252 510 q 195 561 195 510 l 195 561 l 195 639 q 254 685 195 685 z "},".":{"ha":386,"x_min":null,"x_max":null,"o":""},"/":{"ha":386,"x_min":null,"x_max":null,"o":""},":":{"ha":386,"x_min":null,"x_max":null,"o":""},";":{"ha":386,"x_min":null,"x_max":null,"o":""},";":{"ha":386,"x_min":null,"x_max":null,"o":""},"<":{"ha":811,"x_min":null,"x_max":null,"o":""},"=":{"ha":811,"x_min":null,"x_max":null,"o":""},">":{"ha":811,"x_min":null,"x_max":null,"o":""},"?":{"ha":772,"x_min":null,"x_max":null,"o":""},"@":{"ha":1410,"x_min":null,"x_max":null,"o":""},"A":{"ha":610,"x_min":75,"x_max":530,"o":"m 256 1109 l 256 1109 l 340 1109 q 371 1068 366 1096 l 371 1068 l 530 79 q 492 24 530 30 l 492 24 l 422 24 q 387 103 387 40 l 387 103 q 341 195 382 191 l 341 195 l 273 195 q 222 112 229 193 l 222 112 l 216 54 q 179 24 209 26 l 179 24 l 105 24 q 75 73 75 39 l 75 73 l 229 1066 q 256 1109 235 1097 z m 270 517 l 256 431 l 248 378 q 267 323 245 326 l 267 323 l 332 323 q 352 379 356 322 l 352 379 l 335 515 q 307 559 330 555 l 307 559 q 270 517 275 558 l 270 517 z "},"B":{"ha":610,"x_min":68,"x_max":536,"o":"m 108 1109 l 108 1109 l 305 1109 q 381 1101 360 1106 l 381 1101 q 500 1023 468 1071 q 536 944 532 975 l 536 944 l 535 719 q 490 602 530 642 l 490 602 l 490 572 q 522 513 512 545 q 535 431 532 481 l 535 431 l 535 229 q 404 27 530 28 l 404 27 l 109 27 q 68 80 68 27 l 68 80 l 68 1071 q 108 1109 71 1107 z m 204 908 l 204 908 l 204 711 q 232 651 202 651 l 232 651 l 306 651 q 394 754 395 652 l 394 754 l 394 860 q 305 968 394 968 l 305 968 l 233 968 q 204 908 203 968 z m 203 464 l 203 464 l 203 208 q 233 161 203 161 l 233 161 l 305 161 q 394 228 394 161 l 394 228 l 394 458 q 306 522 394 522 l 306 522 l 233 522 q 203 464 205 521 z "},"C":{"ha":610,"x_min":69,"x_max":534,"o":"m 497 886 l 440 886 q 407 909 407 886 l 407 909 q 305 969 407 969 l 305 969 q 202 886 202 969 l 202 886 l 202 256 q 305 163 202 163 l 305 163 q 406 233 407 163 l 406 233 q 444 256 407 256 l 444 256 l 492 256 q 534 235 534 256 l 534 235 q 305 23 534 23 l 305 23 q 69 256 69 23 l 69 256 l 69 886 q 305 1109 69 1106 l 305 1109 q 534 909 534 1106 l 534 909 q 497 886 534 886 l 497 886 z "},"D":{"ha":610,"x_min":69,"x_max":517,"o":"m 96 1106 l 96 1106 l 316 1106 q 517 924 515 1106 l 517 924 l 517 214 q 316 23 516 23 l 316 23 l 110 23 q 69 85 69 24 l 69 85 l 69 1050 q 96 1106 69 1104 z m 195 911 l 195 911 l 195 209 q 233 163 195 163 l 233 163 l 316 163 q 395 256 395 163 l 395 256 l 395 871 q 316 969 395 969 l 316 969 l 239 969 q 195 911 195 969 z "},"E":{"ha":610,"x_min":75,"x_max":536,"o":"m 104 1105 l 104 1105 l 490 1105 q 536 1061 536 1103 l 536 1061 l 536 1025 q 491 972 536 972 l 491 972 l 229 972 q 205 943 204 972 l 205 943 l 205 688 q 245 657 205 657 l 245 657 l 373 657 q 408 611 408 657 l 408 611 l 408 562 q 373 524 406 524 l 373 524 l 237 524 q 205 481 205 525 l 205 481 l 205 194 q 232 161 205 161 l 232 161 l 490 161 q 533 115 535 155 l 533 115 l 533 71 q 489 25 534 25 l 489 25 l 122 25 q 75 71 75 26 l 75 71 l 75 1069 q 104 1105 75 1105 z "},"F":{"ha":610,"x_min":75,"x_max":536,"o":"m 104 1105 l 104 1105 l 490 1105 q 536 1061 536 1103 l 536 1061 l 536 1025 q 491 972 536 972 l 491 972 l 229 972 q 205 943 204 972 l 205 943 l 205 688 q 245 657 205 657 l 245 657 l 373 657 q 408 611 408 657 l 408 611 l 408 562 q 373 524 406 524 l 373 524 l 237 524 q 205 481 205 525 l 205 481 l 205 75 q 159 25 205 25 l 159 25 l 122 25 q 75 71 75 26 l 75 71 l 75 1069 q 104 1105 75 1105 z "},"G":{"ha":612,"x_min":79,"x_max":526,"o":"m 293 1113 q 526 888 526 1113 l 526 888 q 474 863 526 863 l 474 863 q 412 888 412 863 l 412 888 q 293 996 412 996 l 293 996 q 192 888 192 996 l 192 888 l 192 248 q 294 154 192 155 l 294 154 q 412 248 412 155 l 412 248 l 412 358 q 340 432 412 432 l 340 432 q 293 481 293 432 l 293 481 q 340 536 293 536 l 340 536 l 478 536 q 526 490 526 536 l 526 490 l 526 248 q 294 24 526 24 l 294 24 q 79 247 79 24 l 79 247 l 79 889 q 293 1113 79 1113 l 293 1113 z "},"H":{"ha":610,"x_min":61,"x_max":540,"o":"m 109 1109 l 109 1109 l 165 1109 q 210 1059 210 1109 l 210 1059 l 210 700 q 242 650 210 659 l 242 650 l 339 650 q 381 699 382 654 l 381 699 l 381 1067 q 429 1109 386 1109 l 429 1109 l 491 1109 q 540 1059 536 1109 l 540 1059 l 540 71 q 495 24 540 25 l 495 24 l 431 24 q 380 62 382 26 l 380 62 l 380 467 q 342 521 380 513 l 342 521 l 255 521 q 210 471 210 516 l 210 471 l 210 64 q 175 24 209 25 l 175 24 l 102 24 q 61 66 62 26 l 61 66 l 61 1055 q 109 1109 61 1107 z "},"I":{"ha":610,"x_min":140,"x_max":477,"o":"m 178 1107 l 178 1107 l 439 1107 q 477 1061 476 1107 l 477 1061 l 476 998 q 439 960 476 961 l 439 960 l 401 961 q 368 930 368 967 l 368 930 l 368 233 q 392 169 368 169 l 392 169 l 439 169 q 476 129 476 168 l 476 129 l 476 61 q 439 24 476 24 l 439 24 l 178 24 q 140 61 140 24 l 140 61 l 140 128 q 178 169 140 169 l 178 169 l 213 169 q 241 197 241 169 l 241 197 l 241 930 q 216 961 241 961 l 216 961 l 178 961 q 140 998 140 961 l 140 998 l 140 1061 q 178 1107 140 1107 z "},"J":{"ha":610,"x_min":68,"x_max":526,"o":"m 419 1109 l 507 1109 q 526 1084 526 1109 l 526 1084 l 526 212 q 309 24 524 26 l 309 24 l 301 24 q 68 233 71 24 l 68 233 q 117 271 68 271 l 117 271 l 161 271 q 205 233 205 271 l 205 233 q 307 157 206 157 l 307 157 q 400 247 401 159 l 400 247 l 400 1084 q 419 1109 400 1109 l 419 1109 z "},"K":{"ha":612,"x_min":76,"x_max":548,"o":"m 107 1109 l 175 1109 q 206 1065 206 1109 l 206 1065 l 206 813 q 225 813 206 783 l 225 813 l 361 1081 q 391 1109 372 1109 l 391 1109 l 497 1109 q 520 1074 536 1109 l 520 1074 l 349 732 q 347 676 337 707 l 347 676 l 545 63 q 548 45 548 53 l 548 45 q 520 24 548 24 l 520 24 l 440 24 q 400 66 413 24 l 400 66 l 275 467 q 243 501 263 501 l 243 501 l 229 501 q 206 478 206 501 l 206 478 l 206 50 q 179 24 210 24 l 179 24 l 106 24 q 76 56 76 24 l 76 56 l 76 1069 q 107 1109 76 1109 l 107 1109 z "},"L":{"ha":612,"x_min":76,"x_max":536,"o":"m 114 1106 l 114 1106 l 168 1106 q 207 1063 206 1106 l 207 1063 l 206 184 q 239 157 206 157 l 239 157 l 479 157 q 536 119 536 157 l 536 119 l 536 73 q 480 24 536 24 l 480 24 l 114 24 q 76 60 76 24 l 76 60 l 76 1060 q 114 1106 76 1106 z "},"M":{"ha":610,"x_min":75,"x_max":529,"o":"m 115 1109 l 115 1109 l 162 1109 q 199 1082 191 1108 l 199 1082 l 281 817 q 300 804 283 804 l 300 804 l 311 804 q 326 817 323 804 l 326 817 l 408 1082 q 439 1109 416 1108 l 439 1109 l 492 1109 q 528 1067 528 1109 l 528 1067 l 529 61 q 488 24 528 24 l 488 24 l 445 24 q 407 61 408 24 l 407 61 l 407 522 q 384 549 407 549 l 384 549 q 342 465 362 549 l 342 465 q 314 378 326 378 l 314 378 l 297 378 q 264 465 285 378 l 264 465 q 221 546 247 546 l 221 546 q 199 522 199 546 l 199 522 l 199 61 q 148 24 199 24 l 148 24 l 115 24 q 75 61 75 24 l 75 61 l 75 1067 q 115 1109 75 1109 z "},"N":{"ha":610,"x_min":75,"x_max":528,"o":"m 119 1109 l 159 1109 q 207 1067 195 1109 l 207 1067 l 351 598 q 384 552 367 555 l 384 552 q 401 591 401 551 l 401 591 l 401 1067 q 438 1109 401 1109 l 438 1109 l 498 1109 q 528 1067 528 1109 l 528 1067 l 528 61 q 498 24 528 24 l 498 24 l 444 24 q 392 56 406 24 l 392 56 l 245 555 q 224 583 238 579 l 224 583 q 207 522 208 581 l 207 522 l 207 61 q 161 24 207 24 l 161 24 l 120 24 q 75 61 75 24 l 75 61 l 75 1067 q 119 1109 75 1109 l 119 1109 z "},"O":{"ha":610,"x_min":75,"x_max":528,"o":"m 305 1109 l 305 1109 q 528 916 528 1109 l 528 916 l 528 287 q 305 24 528 24 l 305 24 q 75 277 75 24 l 75 277 l 75 916 q 305 1109 75 1109 z m 191 880 l 191 880 l 199 258 q 304 151 199 151 l 304 151 q 407 258 407 151 l 407 258 l 407 880 q 305 987 407 987 l 305 987 q 191 880 191 987 z "},"P":{"ha":610,"x_min":75,"x_max":528,"o":"m 336 540 l 248 540 q 205 484 205 540 l 205 484 l 205 71 q 157 24 205 24 l 157 24 l 118 24 q 75 73 75 24 l 75 73 l 75 1061 q 109 1107 75 1107 l 109 1107 l 292 1107 q 528 914 528 1107 l 528 914 l 528 722 q 336 540 528 540 l 336 540 z m 205 939 l 205 724 q 243 662 205 662 l 243 662 l 319 662 q 406 729 405 662 l 406 729 l 406 899 q 378 961 406 940 q 303 983 351 983 l 303 983 l 264 983 q 205 939 205 983 l 205 939 z "},"Q":{"ha":610,"x_min":75,"x_max":528,"o":"m 306 1109 l 306 1109 q 528 880 528 1109 l 528 880 l 528 258 q 509 160 528 202 l 509 160 q 511 87 493 131 l 511 87 q 472 24 511 45 l 472 24 l 448 24 q 389 41 416 45 l 389 41 q 305 24 336 24 l 305 24 q 75 258 75 24 l 75 258 l 75 881 q 306 1109 75 1109 z m 199 901 l 199 901 l 199 220 q 306 144 199 131 l 306 144 q 321 151 315 146 l 321 151 l 321 162 l 278 219 q 275 249 272 233 l 275 249 q 320 287 294 279 l 320 287 q 365 257 336 291 l 365 257 q 407 273 407 222 l 407 273 l 407 900 q 304 987 407 987 l 304 987 q 199 901 199 987 z "},"R":{"ha":610,"x_min":75,"x_max":535,"o":"m 109 1107 l 292 1107 q 533 907 533 1107 l 533 907 l 533 703 q 406 545 533 592 l 406 545 q 406 522 399 542 l 406 522 l 533 73 q 535 58 535 65 l 535 58 q 492 24 535 24 l 492 24 l 455 24 q 406 73 416 24 l 406 73 l 305 497 q 275 538 299 532 l 275 538 l 238 538 q 197 486 197 538 l 197 486 l 197 73 q 153 24 197 24 l 153 24 l 118 24 q 75 73 75 24 l 75 73 l 75 1061 q 109 1107 75 1107 l 109 1107 z m 197 947 l 197 701 q 235 640 197 640 l 235 640 l 319 640 q 406 707 387 640 l 406 707 l 406 907 q 378 969 406 947 q 303 990 351 990 l 303 990 l 257 990 q 197 947 197 990 l 197 947 z "},"S":{"ha":612,"x_min":69,"x_max":523,"o":"m 301 1109 l 301 1109 q 523 880 523 1109 l 523 880 q 481 823 523 823 l 481 823 l 435 823 q 393 880 393 823 l 393 880 q 300 983 393 983 l 300 983 q 209 880 209 983 l 209 880 q 252 754 209 791 l 252 754 l 394 585 q 523 258 499 486 l 523 258 q 300 24 523 24 l 300 24 q 70 223 70 24 l 70 223 q 140 258 70 258 l 140 258 q 209 233 210 258 l 209 233 q 300 144 209 144 l 300 144 q 394 226 394 144 l 394 226 l 393 258 q 210 587 361 456 l 210 587 l 127 684 q 69 880 69 749 l 69 880 q 301 1109 69 1109 z "},"T":{"ha":607,"x_min":75,"x_max":551,"o":"m 101 1107 l 101 1107 l 528 1107 q 551 1082 551 1107 l 551 1082 l 551 989 q 534 966 551 966 l 534 966 l 408 966 q 382 938 382 966 l 382 938 l 382 46 q 362 24 382 24 l 362 24 l 267 24 q 245 46 245 24 l 245 46 l 245 938 q 219 966 245 966 l 219 966 l 96 966 q 75 991 75 966 l 75 991 l 75 1082 q 101 1107 75 1107 z "},"U":{"ha":610,"x_min":75,"x_max":529,"o":"m 122 1109 l 122 1109 l 154 1109 q 205 1056 205 1109 l 205 1056 l 205 258 q 306 144 205 144 l 306 144 q 407 258 407 144 l 407 258 l 408 1056 q 446 1109 407 1109 l 446 1109 l 490 1109 q 528 1056 528 1109 l 528 1056 l 528 258 q 306 24 529 24 l 306 24 q 75 258 75 24 l 75 258 l 75 1056 q 122 1109 75 1109 z "},"V":{"ha":610,"x_min":75,"x_max":549,"o":"m 117 1109 l 117 1109 l 159 1109 q 210 1051 206 1109 l 210 1051 l 288 609 q 314 564 295 566 q 337 612 334 562 l 337 612 l 410 1051 q 457 1109 416 1109 l 457 1109 l 511 1109 q 549 1051 544 1109 l 549 1051 l 378 100 q 313 26 376 33 l 313 26 q 239 100 238 37 l 239 100 l 75 1051 q 117 1109 83 1109 z "},"W":{"ha":610,"x_min":75,"x_max":549,"o":"m 120 98 l 120 98 l 75 1049 q 115 1107 75 1107 l 115 1107 l 156 1107 q 194 1049 189 1107 l 194 1049 l 210 728 q 234 696 210 696 q 263 728 258 696 l 263 728 l 283 1050 q 312 1093 288 1093 l 312 1093 q 336 1049 334 1093 l 336 1049 l 363 728 q 390 696 370 696 q 411 728 411 696 l 411 728 l 425 1049 q 469 1107 426 1107 l 469 1107 l 511 1107 q 549 1049 545 1107 l 549 1049 l 509 98 q 463 24 500 24 l 463 24 l 416 24 q 374 98 383 24 l 374 98 l 341 333 q 313 372 338 368 l 313 372 q 289 334 289 364 l 289 334 l 263 98 q 213 24 257 24 l 213 24 l 178 24 q 120 98 125 24 z "},"X":{"ha":610,"x_min":75,"x_max":562,"o":"m 106 1107 l 106 1107 l 176 1107 q 216 1049 197 1107 l 216 1049 l 282 882 q 317 836 296 836 l 317 836 q 350 882 334 835 l 350 882 l 416 1049 q 448 1107 435 1105 l 448 1107 l 519 1107 q 559 1075 559 1107 l 559 1075 q 555 1049 559 1064 l 555 1049 l 385 592 q 385 539 375 564 l 385 539 l 555 77 q 562 52 562 62 l 562 52 q 519 24 562 24 l 519 24 l 455 24 q 416 77 437 24 l 416 77 l 347 263 q 317 292 338 290 l 317 292 q 283 265 292 291 l 283 265 l 216 77 q 177 24 195 24 l 177 24 l 105 24 q 75 50 75 24 l 75 50 q 80 77 75 62 l 80 77 l 246 539 q 245 592 255 564 l 245 592 l 80 1049 q 75 1077 75 1065 l 75 1077 q 106 1107 75 1107 z "},"Y":{"ha":609,"x_min":75,"x_max":555,"o":"m 103 1107 l 103 1107 l 165 1107 q 202 1057 185 1107 l 202 1057 l 294 758 q 338 757 317 730 l 338 757 l 438 1057 q 470 1107 454 1106 l 470 1107 l 526 1107 q 555 1073 555 1106 l 555 1073 q 553 1057 555 1066 l 553 1057 l 389 533 q 384 503 384 523 l 384 503 l 384 60 q 350 23 384 23 l 350 23 l 280 22 q 247 59 247 23 l 247 59 l 247 503 q 243 533 247 522 l 243 533 l 77 1057 q 75 1076 75 1068 l 75 1076 q 103 1107 75 1107 z "},"Z":{"ha":610,"x_min":71,"x_max":557,"o":"m 75 77 l 376 949 q 361 966 381 966 l 361 966 l 98 966 q 75 992 75 967 l 75 992 l 75 1082 q 101 1109 75 1109 l 101 1109 l 528 1109 q 557 1082 557 1109 l 557 1082 q 551 1053 557 1070 l 551 1053 l 257 205 q 275 165 244 165 l 275 165 l 528 165 q 551 140 551 165 l 551 140 l 551 47 q 528 24 551 24 l 528 24 l 96 24 q 79 33 84 24 l 79 33 q 71 52 71 39 l 71 52 q 75 77 71 63 l 75 77 z "},"[":{"ha":386,"x_min":null,"x_max":null,"o":""},"\\":{"ha":386,"x_min":null,"x_max":null,"o":""},"]":{"ha":386,"x_min":null,"x_max":null,"o":""},"^":{"ha":652,"x_min":null,"x_max":null,"o":""},"_":{"ha":772,"x_min":null,"x_max":null,"o":""},"`":{"ha":463,"x_min":null,"x_max":null,"o":""},"a":{"ha":610,"x_min":75,"x_max":530,"o":"m 256 1109 l 256 1109 l 340 1109 q 371 1068 366 1096 l 371 1068 l 530 79 q 492 24 530 30 l 492 24 l 422 24 q 387 103 387 40 l 387 103 q 341 195 382 191 l 341 195 l 273 195 q 222 112 229 193 l 222 112 l 216 54 q 179 24 209 26 l 179 24 l 105 24 q 75 73 75 39 l 75 73 l 229 1066 q 256 1109 235 1097 z m 270 517 l 256 431 l 248 378 q 267 323 245 326 l 267 323 l 332 323 q 352 379 356 322 l 352 379 l 335 515 q 307 559 330 555 l 307 559 q 270 517 275 558 l 270 517 z "},"b":{"ha":610,"x_min":68,"x_max":536,"o":"m 108 1085 l 108 1085 l 305 1085 q 381 1077 360 1082 l 381 1077 q 500 998 468 1046 q 536 920 532 950 l 536 920 l 535 694 q 490 578 530 618 l 490 578 l 490 548 q 522 488 512 520 q 535 407 532 456 l 535 407 l 535 205 q 404 3 530 3 l 404 3 l 109 3 q 68 56 68 3 l 68 56 l 68 1046 q 108 1085 71 1082 z m 204 884 l 204 884 l 204 687 q 232 627 202 627 l 232 627 l 306 627 q 394 730 395 627 l 394 730 l 394 836 q 305 944 394 944 l 305 944 l 233 944 q 204 884 203 944 z m 203 439 l 203 439 l 203 184 q 233 137 203 137 l 233 137 l 305 137 q 394 203 394 137 l 394 203 l 394 434 q 306 497 394 497 l 306 497 l 233 497 q 203 439 205 496 z "},"c":{"ha":610,"x_min":69,"x_max":534,"o":"m 497 886 l 440 886 q 407 909 407 886 l 407 909 q 305 969 407 969 l 305 969 q 202 886 202 969 l 202 886 l 202 256 q 305 163 202 163 l 305 163 q 406 233 407 163 l 406 233 q 444 256 407 256 l 444 256 l 492 256 q 534 235 534 256 l 534 235 q 305 23 534 23 l 305 23 q 69 256 69 23 l 69 256 l 69 886 q 305 1109 69 1106 l 305 1109 q 534 909 534 1106 l 534 909 q 497 886 534 886 l 497 886 z "},"d":{"ha":610,"x_min":65,"x_max":513,"o":"m 92 1082 l 92 1082 l 377 1082 q 513 949 501 1080 l 513 949 l 513 136 q 369 3 508 14 l 369 3 l 104 3 q 65 64 65 3 l 65 64 l 65 1028 q 92 1082 65 1082 z m 198 920 l 198 920 l 198 171 q 233 133 198 133 l 233 133 l 336 133 q 393 203 393 137 l 393 203 l 393 876 q 336 952 394 945 l 336 952 l 239 952 q 198 920 201 952 z "},"e":{"ha":610,"x_min":75,"x_max":536,"o":"m 104 1082 l 104 1082 l 490 1082 q 536 1039 536 1080 l 536 1039 l 536 1002 q 491 949 536 950 l 491 949 l 229 949 q 205 920 204 949 l 205 920 l 205 665 q 245 635 205 635 l 245 635 l 373 635 q 408 589 408 635 l 408 589 l 408 540 q 373 502 406 502 l 373 502 l 237 502 q 205 458 205 503 l 205 458 l 205 172 q 232 138 205 138 l 232 138 l 490 138 q 533 93 535 133 l 533 93 l 533 49 q 489 3 534 3 l 489 3 l 122 3 q 75 48 75 3 l 75 48 l 75 1047 q 104 1082 75 1082 z "},"f":{"ha":610,"x_min":75,"x_max":536,"o":"m 104 1082 l 104 1082 l 490 1082 q 536 1039 536 1080 l 536 1039 l 536 1002 q 491 949 536 950 l 491 949 l 229 949 q 205 920 204 949 l 205 920 l 205 665 q 245 635 205 635 l 245 635 l 373 635 q 408 589 408 635 l 408 589 l 408 540 q 373 502 406 502 l 373 502 l 237 502 q 205 458 205 503 l 205 458 l 205 53 q 159 3 205 3 l 159 3 l 122 3 q 75 48 75 3 l 75 48 l 75 1047 q 104 1082 75 1082 z "},"g":{"ha":612,"x_min":78,"x_max":526,"o":"m 293 1113 q 526 888 526 1113 l 526 888 q 474 863 526 863 l 474 863 q 412 888 412 863 l 412 888 q 293 996 412 996 l 293 996 q 192 888 192 996 l 192 888 l 192 248 q 294 154 192 155 l 294 154 q 412 248 412 155 l 412 248 l 412 358 q 340 432 412 432 l 340 432 q 293 481 293 432 l 293 481 q 340 536 293 536 l 340 536 l 478 536 q 526 490 526 536 l 526 490 l 526 248 q 294 24 526 24 l 294 24 q 79 248 78 24 l 79 248 l 79 888 q 293 1113 78 1113 l 293 1113 z "},"h":{"ha":610,"x_min":61,"x_max":540,"o":"m 109 1085 l 109 1085 l 165 1085 q 210 1034 210 1085 l 210 1034 l 210 675 q 242 625 210 635 l 242 625 l 339 625 q 381 674 382 630 l 381 674 l 381 1042 q 429 1085 386 1084 l 429 1085 l 491 1085 q 540 1034 536 1085 l 540 1034 l 540 47 q 495 0 540 1 l 495 0 l 431 0 q 380 37 382 1 l 380 37 l 380 443 q 342 496 380 489 l 342 496 l 255 496 q 210 447 210 492 l 210 447 l 210 39 q 175 0 209 1 l 175 0 l 102 0 q 61 42 62 1 l 61 42 l 61 1031 q 109 1085 61 1082 z "},"i":{"ha":610,"x_min":140,"x_max":476,"o":"m 178 1113 l 178 1113 l 439 1113 q 476 1067 476 1113 l 476 1067 l 476 1004 q 439 967 476 967 l 439 967 l 401 967 q 368 937 368 967 l 368 937 l 368 233 q 392 169 368 169 l 392 169 l 439 169 q 476 129 476 168 l 476 129 l 476 61 q 439 24 476 24 l 439 24 l 178 24 q 140 61 140 24 l 140 61 l 140 128 q 178 169 140 169 l 178 169 l 213 169 q 241 197 241 169 l 241 197 l 241 937 q 216 967 241 967 l 216 967 l 178 967 q 140 1004 140 967 l 140 1004 l 140 1067 q 178 1113 140 1113 z "},"j":{"ha":610,"x_min":68,"x_max":526,"o":"m 419 1109 l 507 1109 q 526 1084 526 1109 l 526 1084 l 526 212 q 309 24 524 26 l 309 24 l 301 24 q 68 233 71 24 l 68 233 q 117 271 68 271 l 117 271 l 161 271 q 205 233 205 271 l 205 233 q 307 157 206 157 l 307 157 q 400 247 401 159 l 400 247 l 400 1084 q 419 1109 400 1109 l 419 1109 z "},"k":{"ha":612,"x_min":76,"x_max":548,"o":"m 107 1109 l 175 1109 q 206 1065 206 1109 l 206 1065 l 206 813 q 225 813 206 783 l 225 813 l 361 1081 q 391 1109 372 1109 l 391 1109 l 497 1109 q 520 1074 536 1109 l 520 1074 l 349 732 q 347 676 337 707 l 347 676 l 545 63 q 548 45 548 53 l 548 45 q 520 24 548 24 l 520 24 l 440 24 q 400 66 413 24 l 400 66 l 275 467 q 243 501 263 501 l 243 501 l 229 501 q 206 478 206 501 l 206 478 l 206 50 q 179 24 210 24 l 179 24 l 106 24 q 76 56 76 24 l 76 56 l 76 1069 q 107 1109 76 1109 l 107 1109 z "},"l":{"ha":612,"x_min":76,"x_max":536,"o":"m 114 1107 l 114 1107 l 168 1107 q 207 1063 206 1107 l 207 1063 l 206 184 q 239 157 206 157 l 239 157 l 479 157 q 536 119 536 157 l 536 119 l 536 73 q 480 24 536 24 l 480 24 l 114 24 q 76 60 76 24 l 76 60 l 76 1061 q 114 1107 76 1107 z "},"m":{"ha":610,"x_min":75,"x_max":529,"o":"m 115 1109 l 115 1109 l 162 1109 q 199 1082 191 1108 l 199 1082 l 281 817 q 300 804 283 804 l 300 804 l 311 804 q 326 817 323 804 l 326 817 l 408 1082 q 439 1109 416 1108 l 439 1109 l 492 1109 q 528 1067 528 1109 l 528 1067 l 529 61 q 488 24 528 24 l 488 24 l 445 24 q 407 61 408 24 l 407 61 l 407 522 q 384 549 407 549 l 384 549 q 342 465 362 549 l 342 465 q 314 378 326 378 l 314 378 l 297 378 q 264 465 285 378 l 264 465 q 221 546 247 546 l 221 546 q 199 522 199 546 l 199 522 l 199 61 q 148 24 199 24 l 148 24 l 115 24 q 75 61 75 24 l 75 61 l 75 1067 q 115 1109 75 1109 z "},"n":{"ha":610,"x_min":75,"x_max":528,"o":"m 119 1109 l 159 1109 q 207 1067 195 1109 l 207 1067 l 351 598 q 384 552 367 555 l 384 552 q 401 591 401 551 l 401 591 l 401 1067 q 438 1109 401 1109 l 438 1109 l 498 1109 q 528 1067 528 1109 l 528 1067 l 528 61 q 498 24 528 24 l 498 24 l 444 24 q 392 56 406 24 l 392 56 l 245 555 q 224 583 238 579 l 224 583 q 207 522 208 581 l 207 522 l 207 61 q 161 24 207 24 l 161 24 l 120 24 q 75 61 75 24 l 75 61 l 75 1067 q 119 1109 75 1109 l 119 1109 z "},"o":{"ha":610,"x_min":75,"x_max":528,"o":"m 305 1109 l 305 1109 q 528 916 528 1109 l 528 916 l 528 287 q 305 24 528 24 l 305 24 q 75 277 75 24 l 75 277 l 75 916 q 305 1109 75 1109 z m 199 865 l 199 865 l 199 258 q 304 151 199 151 l 304 151 q 407 258 407 151 l 407 258 l 407 864 q 305 989 407 989 l 305 989 q 199 865 199 989 z "},"p":{"ha":610,"x_min":75,"x_max":528,"o":"m 336 540 l 248 540 q 205 484 205 540 l 205 484 l 205 71 q 157 24 205 24 l 157 24 l 118 24 q 75 73 75 24 l 75 73 l 75 1061 q 109 1107 75 1107 l 109 1107 l 292 1107 q 528 914 528 1107 l 528 914 l 528 722 q 336 540 528 540 l 336 540 z m 205 939 l 205 724 q 243 662 205 662 l 243 662 l 319 662 q 406 729 405 662 l 406 729 l 406 899 q 378 961 406 940 q 303 983 351 983 l 303 983 l 264 983 q 205 939 205 983 l 205 939 z "},"q":{"ha":610,"x_min":75,"x_max":528,"o":"m 306 1109 l 306 1109 q 528 880 528 1109 l 528 880 l 528 258 q 509 160 528 202 l 509 160 q 511 87 493 131 l 511 87 q 472 24 511 45 l 472 24 l 448 24 q 389 41 416 45 l 389 41 q 305 24 336 24 l 305 24 q 75 258 75 24 l 75 258 l 75 881 q 306 1109 75 1109 z m 199 901 l 199 901 l 199 220 q 306 144 199 131 l 306 144 q 321 151 315 146 l 321 151 l 321 162 l 278 219 q 275 249 272 233 l 275 249 q 320 287 294 279 l 320 287 q 365 257 336 291 l 365 257 q 407 273 407 222 l 407 273 l 407 900 q 304 987 407 987 l 304 987 q 199 901 199 987 z "},"r":{"ha":610,"x_min":75,"x_max":535,"o":"m 109 1107 l 292 1107 q 533 907 533 1107 l 533 907 l 533 703 q 406 545 533 592 l 406 545 q 406 522 399 542 l 406 522 l 533 73 q 535 58 535 65 l 535 58 q 492 24 535 24 l 492 24 l 455 24 q 406 73 416 24 l 406 73 l 305 497 q 275 538 299 532 l 275 538 l 238 538 q 197 486 197 538 l 197 486 l 197 73 q 153 24 197 24 l 153 24 l 118 24 q 75 73 75 24 l 75 73 l 75 1061 q 109 1107 75 1107 l 109 1107 z m 197 947 l 197 701 q 235 640 197 640 l 235 640 l 319 640 q 406 707 387 640 l 406 707 l 406 907 q 378 969 406 947 q 303 990 351 990 l 303 990 l 257 990 q 197 947 197 990 l 197 947 z "},"s":{"ha":612,"x_min":69,"x_max":523,"o":"m 301 1109 l 301 1109 q 523 880 523 1109 l 523 880 q 481 823 523 823 l 481 823 l 435 823 q 393 880 393 823 l 393 880 q 300 983 393 983 l 300 983 q 209 880 209 983 l 209 880 q 252 754 209 791 l 252 754 l 394 585 q 523 258 499 486 l 523 258 q 300 24 523 24 l 300 24 q 70 223 70 24 l 70 223 q 140 258 70 258 l 140 258 q 209 233 210 258 l 209 233 q 300 144 209 144 l 300 144 q 394 226 394 144 l 394 226 l 393 258 q 210 587 361 456 l 210 587 l 127 684 q 69 880 69 749 l 69 880 q 301 1109 69 1109 z "},"t":{"ha":607,"x_min":75,"x_max":551,"o":"m 101 1107 l 101 1107 l 528 1107 q 551 1082 551 1107 l 551 1082 l 551 989 q 534 966 551 966 l 534 966 l 408 966 q 382 938 382 966 l 382 938 l 382 46 q 362 24 382 24 l 362 24 l 267 24 q 245 46 245 24 l 245 46 l 245 938 q 219 966 245 966 l 219 966 l 96 966 q 75 991 75 966 l 75 991 l 75 1082 q 101 1107 75 1107 z "},"u":{"ha":610,"x_min":75,"x_max":529,"o":"m 122 1109 l 122 1109 l 154 1109 q 205 1056 205 1109 l 205 1056 l 205 258 q 306 144 205 144 l 306 144 q 407 258 407 144 l 407 258 l 408 1056 q 446 1109 407 1109 l 446 1109 l 490 1109 q 528 1056 528 1109 l 528 1056 l 528 258 q 306 24 529 24 l 306 24 q 75 258 75 24 l 75 258 l 75 1056 q 122 1109 75 1109 z "},"v":{"ha":610,"x_min":75,"x_max":549,"o":"m 117 1109 l 117 1109 l 159 1109 q 210 1051 206 1109 l 210 1051 l 288 609 q 314 564 295 566 q 337 612 334 562 l 337 612 l 410 1051 q 457 1109 416 1109 l 457 1109 l 511 1109 q 549 1051 544 1109 l 549 1051 l 378 100 q 313 26 376 33 l 313 26 q 239 100 238 37 l 239 100 l 75 1051 q 117 1109 83 1109 z "},"w":{"ha":610,"x_min":75,"x_max":549,"o":"m 120 98 l 120 98 l 75 1049 q 115 1107 75 1107 l 115 1107 l 156 1107 q 194 1049 189 1107 l 194 1049 l 210 728 q 234 696 210 696 q 263 728 258 696 l 263 728 l 283 1050 q 312 1093 288 1093 l 312 1093 q 336 1049 334 1093 l 336 1049 l 363 728 q 390 696 370 696 q 411 728 411 696 l 411 728 l 425 1049 q 469 1107 426 1107 l 469 1107 l 511 1107 q 549 1049 545 1107 l 549 1049 l 509 98 q 463 24 500 24 l 463 24 l 416 24 q 374 98 383 24 l 374 98 l 341 333 q 313 372 338 368 l 313 372 q 289 334 289 364 l 289 334 l 263 98 q 213 24 257 24 l 213 24 l 178 24 q 120 98 125 24 z "},"x":{"ha":610,"x_min":75,"x_max":562,"o":"m 106 1107 l 106 1107 l 176 1107 q 216 1049 197 1107 l 216 1049 l 282 882 q 317 836 296 836 l 317 836 q 350 882 334 835 l 350 882 l 416 1049 q 448 1107 435 1105 l 448 1107 l 519 1107 q 559 1075 559 1107 l 559 1075 q 555 1049 559 1064 l 555 1049 l 385 592 q 385 539 375 564 l 385 539 l 555 77 q 562 52 562 62 l 562 52 q 519 24 562 24 l 519 24 l 455 24 q 416 77 437 24 l 416 77 l 347 263 q 317 292 338 290 l 317 292 q 283 265 292 291 l 283 265 l 216 77 q 177 24 195 24 l 177 24 l 105 24 q 75 50 75 24 l 75 50 q 80 77 75 62 l 80 77 l 246 539 q 245 592 255 564 l 245 592 l 80 1049 q 75 1077 75 1065 l 75 1077 q 106 1107 75 1107 z "},"y":{"ha":609,"x_min":75,"x_max":555,"o":"m 103 1107 l 103 1107 l 165 1107 q 202 1057 185 1107 l 202 1057 l 294 758 q 338 757 317 730 l 338 757 l 438 1057 q 470 1107 454 1106 l 470 1107 l 526 1107 q 555 1073 555 1106 l 555 1073 q 553 1057 555 1066 l 553 1057 l 389 533 q 384 503 384 523 l 384 503 l 384 60 q 350 23 384 23 l 350 23 l 280 22 q 247 59 247 23 l 247 59 l 247 503 q 243 533 247 522 l 243 533 l 77 1057 q 75 1076 75 1068 l 75 1076 q 103 1107 75 1107 z "},"z":{"ha":610,"x_min":71,"x_max":557,"o":"m 75 77 l 376 949 q 361 966 381 966 l 361 966 l 98 966 q 75 992 75 967 l 75 992 l 75 1082 q 101 1109 75 1109 l 101 1109 l 528 1109 q 557 1082 557 1109 l 557 1082 q 551 1053 557 1070 l 551 1053 l 257 205 q 275 165 244 165 l 275 165 l 528 165 q 551 140 551 165 l 551 140 l 551 47 q 528 24 551 24 l 528 24 l 96 24 q 79 33 84 24 l 79 33 q 71 52 71 39 l 71 52 q 75 77 71 63 l 75 77 z "},"{":{"ha":464,"x_min":null,"x_max":null,"o":""},"|":{"ha":361,"x_min":null,"x_max":null,"o":""},"}":{"ha":464,"x_min":null,"x_max":null,"o":""},"~":{"ha":811,"x_min":null,"x_max":null,"o":""},"Ä":{"ha":926,"x_min":null,"x_max":null,"o":""},"Å":{"ha":926,"x_min":null,"x_max":null,"o":""},"Ç":{"ha":1003,"x_min":null,"x_max":null,"o":""},"É":{"ha":926,"x_min":null,"x_max":null,"o":""},"Ñ":{"ha":1003,"x_min":null,"x_max":null,"o":""},"Ö":{"ha":1080,"x_min":null,"x_max":null,"o":""},"Ü":{"ha":1003,"x_min":null,"x_max":null,"o":""},"á":{"ha":772,"x_min":null,"x_max":null,"o":""},"à":{"ha":772,"x_min":null,"x_max":null,"o":""},"â":{"ha":772,"x_min":null,"x_max":null,"o":""},"ä":{"ha":772,"x_min":null,"x_max":null,"o":""},"ã":{"ha":772,"x_min":null,"x_max":null,"o":""},"å":{"ha":772,"x_min":null,"x_max":null,"o":""},"ç":{"ha":694,"x_min":null,"x_max":null,"o":""},"é":{"ha":772,"x_min":null,"x_max":null,"o":""},"è":{"ha":772,"x_min":null,"x_max":null,"o":""},"ê":{"ha":772,"x_min":null,"x_max":null,"o":""},"ë":{"ha":772,"x_min":null,"x_max":null,"o":""},"í":{"ha":386,"x_min":null,"x_max":null,"o":""},"ì":{"ha":386,"x_min":null,"x_max":null,"o":""},"î":{"ha":386,"x_min":null,"x_max":null,"o":""},"ï":{"ha":386,"x_min":null,"x_max":null,"o":""},"ñ":{"ha":772,"x_min":null,"x_max":null,"o":""},"ó":{"ha":772,"x_min":null,"x_max":null,"o":""},"ò":{"ha":772,"x_min":null,"x_max":null,"o":""},"ô":{"ha":772,"x_min":null,"x_max":null,"o":""},"ö":{"ha":772,"x_min":null,"x_max":null,"o":""},"õ":{"ha":772,"x_min":null,"x_max":null,"o":""},"ú":{"ha":772,"x_min":null,"x_max":null,"o":""},"ù":{"ha":772,"x_min":null,"x_max":null,"o":""},"û":{"ha":772,"x_min":null,"x_max":null,"o":""},"ü":{"ha":772,"x_min":null,"x_max":null,"o":""},"†":{"ha":772,"x_min":null,"x_max":null,"o":""},"°":{"ha":555,"x_min":null,"x_max":null,"o":""},"¢":{"ha":772,"x_min":null,"x_max":null,"o":""},"£":{"ha":772,"x_min":null,"x_max":null,"o":""},"§":{"ha":772,"x_min":null,"x_max":null,"o":""},"•":{"ha":486,"x_min":null,"x_max":null,"o":""},"¶":{"ha":746,"x_min":null,"x_max":null,"o":""},"ß":{"ha":848,"x_min":null,"x_max":null,"o":""},"®":{"ha":1023,"x_min":null,"x_max":null,"o":""},"©":{"ha":1023,"x_min":null,"x_max":null,"o":""},"™":{"ha":1389,"x_min":null,"x_max":null,"o":""},"´":{"ha":463,"x_min":null,"x_max":null,"o":""},"¨":{"ha":463,"x_min":null,"x_max":null,"o":""},"≠":{"ha":762,"x_min":null,"x_max":null,"o":""},"Æ":{"ha":1389,"x_min":null,"x_max":null,"o":""},"Ø":{"ha":1080,"x_min":null,"x_max":null,"o":""},"∞":{"ha":990,"x_min":null,"x_max":null,"o":""},"±":{"ha":762,"x_min":null,"x_max":null,"o":""},"≤":{"ha":762,"x_min":null,"x_max":null,"o":""},"≥":{"ha":762,"x_min":null,"x_max":null,"o":""},"¥":{"ha":772,"x_min":null,"x_max":null,"o":""},"µ":{"ha":800,"x_min":null,"x_max":null,"o":""},"∂":{"ha":686,"x_min":null,"x_max":null,"o":""},"∑":{"ha":990,"x_min":null,"x_max":null,"o":""},"∏":{"ha":1143,"x_min":null,"x_max":null,"o":""},"∫":{"ha":380,"x_min":null,"x_max":null,"o":""},"ª":{"ha":514,"x_min":null,"x_max":null,"o":""},"º":{"ha":507,"x_min":null,"x_max":null,"o":""},"Ω":{"ha":1067,"x_min":null,"x_max":null,"o":""},"æ":{"ha":1235,"x_min":null,"x_max":null,"o":""},"ø":{"ha":848,"x_min":null,"x_max":null,"o":""},"¿":{"ha":848,"x_min":null,"x_max":null,"o":""},"¡":{"ha":463,"x_min":null,"x_max":null,"o":""},"¬":{"ha":811,"x_min":null,"x_max":null,"o":""},"√":{"ha":762,"x_min":null,"x_max":null,"o":""},"ƒ":{"ha":772,"x_min":null,"x_max":null,"o":""},"≈":{"ha":762,"x_min":null,"x_max":null,"o":""},"∆":{"ha":850,"x_min":null,"x_max":null,"o":""},"«":{"ha":772,"x_min":null,"x_max":null,"o":""},"»":{"ha":772,"x_min":null,"x_max":null,"o":""},"…":{"ha":1389,"x_min":null,"x_max":null,"o":""},"À":{"ha":926,"x_min":null,"x_max":null,"o":""},"Ã":{"ha":926,"x_min":null,"x_max":null,"o":""},"Õ":{"ha":1080,"x_min":null,"x_max":null,"o":""},"Œ":{"ha":1389,"x_min":null,"x_max":null,"o":""},"œ":{"ha":1311,"x_min":null,"x_max":null,"o":""},"–":{"ha":772,"x_min":null,"x_max":null,"o":""},"—":{"ha":1389,"x_min":null,"x_max":null,"o":""},"“":{"ha":463,"x_min":null,"x_max":null,"o":""},"”":{"ha":463,"x_min":null,"x_max":null,"o":""},"‘":{"ha":309,"x_min":null,"x_max":null,"o":""},"’":{"ha":309,"x_min":null,"x_max":null,"o":""},"÷":{"ha":762,"x_min":null,"x_max":null,"o":""},"◊":{"ha":686,"x_min":null,"x_max":null,"o":""},"ÿ":{"ha":694,"x_min":null,"x_max":null,"o":""},"Ÿ":{"ha":926,"x_min":null,"x_max":null,"o":""},"⁄":{"ha":232,"x_min":null,"x_max":null,"o":""},"∕":{"ha":232,"x_min":null,"x_max":null,"o":""},"€":{"ha":772,"x_min":null,"x_max":null,"o":""},"‹":{"ha":463,"x_min":null,"x_max":null,"o":""},"›":{"ha":463,"x_min":null,"x_max":null,"o":""},"":{"ha":694,"x_min":null,"x_max":null,"o":""},"ﬁ":{"ha":694,"x_min":null,"x_max":null,"o":""},"":{"ha":694,"x_min":null,"x_max":null,"o":""},"ﬂ":{"ha":694,"x_min":null,"x_max":null,"o":""},"‡":{"ha":772,"x_min":null,"x_max":null,"o":""},"·":{"ha":386,"x_min":null,"x_max":null,"o":""},"∙":{"ha":386,"x_min":null,"x_max":null,"o":""},"‚":{"ha":309,"x_min":null,"x_max":null,"o":""},"„":{"ha":463,"x_min":null,"x_max":null,"o":""},"‰":{"ha":1389,"x_min":null,"x_max":null,"o":""},"Â":{"ha":926,"x_min":null,"x_max":null,"o":""},"Ê":{"ha":926,"x_min":null,"x_max":null,"o":""},"Á":{"ha":926,"x_min":null,"x_max":null,"o":""},"Ë":{"ha":926,"x_min":null,"x_max":null,"o":""},"È":{"ha":926,"x_min":null,"x_max":null,"o":""},"Í":{"ha":386,"x_min":null,"x_max":null,"o":""},"Î":{"ha":386,"x_min":null,"x_max":null,"o":""},"Ï":{"ha":386,"x_min":null,"x_max":null,"o":""},"Ì":{"ha":386,"x_min":null,"x_max":null,"o":""},"Ó":{"ha":1080,"x_min":null,"x_max":null,"o":""},"Ô":{"ha":1080,"x_min":null,"x_max":null,"o":""},"Ò":{"ha":1080,"x_min":null,"x_max":null,"o":""},"Ú":{"ha":1003,"x_min":null,"x_max":null,"o":""},"Û":{"ha":1003,"x_min":null,"x_max":null,"o":""},"Ù":{"ha":1003,"x_min":null,"x_max":null,"o":""},"ı":{"ha":386,"x_min":null,"x_max":null,"o":""},"ˆ":{"ha":463,"x_min":null,"x_max":null,"o":""},"˜":{"ha":463,"x_min":null,"x_max":null,"o":""},"ˉ":{"ha":463,"x_min":null,"x_max":null,"o":""},"˘":{"ha":463,"x_min":null,"x_max":null,"o":""},"˙":{"ha":463,"x_min":null,"x_max":null,"o":""},"˚":{"ha":463,"x_min":null,"x_max":null,"o":""},"¸":{"ha":463,"x_min":null,"x_max":null,"o":""},"˝":{"ha":463,"x_min":null,"x_max":null,"o":""},"˛":{"ha":463,"x_min":null,"x_max":null,"o":""},"ˇ":{"ha":463,"x_min":null,"x_max":null,"o":""},"Ł":{"ha":772,"x_min":null,"x_max":null,"o":""},"ł":{"ha":309,"x_min":null,"x_max":null,"o":""},"Š":{"ha":926,"x_min":null,"x_max":null,"o":""},"š":{"ha":694,"x_min":null,"x_max":null,"o":""},"Ž":{"ha":848,"x_min":null,"x_max":null,"o":""},"ž":{"ha":694,"x_min":null,"x_max":null,"o":""},"¦":{"ha":361,"x_min":null,"x_max":null,"o":""},"Ð":{"ha":1003,"x_min":null,"x_max":null,"o":""},"ð":{"ha":772,"x_min":null,"x_max":null,"o":""},"Ý":{"ha":926,"x_min":null,"x_max":null,"o":""},"ý":{"ha":694,"x_min":null,"x_max":null,"o":""},"Þ":{"ha":926,"x_min":null,"x_max":null,"o":""},"þ":{"ha":772,"x_min":null,"x_max":null,"o":""},"−":{"ha":811,"x_min":null,"x_max":null,"o":""},"×":{"ha":811,"x_min":null,"x_max":null,"o":""},"¹":{"ha":463,"x_min":null,"x_max":null,"o":""},"²":{"ha":463,"x_min":null,"x_max":null,"o":""},"³":{"ha":463,"x_min":null,"x_max":null,"o":""},"½":{"ha":1158,"x_min":null,"x_max":null,"o":""},"¼":{"ha":1158,"x_min":null,"x_max":null,"o":""},"¾":{"ha":1158,"x_min":null,"x_max":null,"o":""},"₣":{"ha":772,"x_min":null,"x_max":null,"o":""},"Ğ":{"ha":1080,"x_min":null,"x_max":null,"o":""},"ğ":{"ha":772,"x_min":null,"x_max":null,"o":""},"İ":{"ha":386,"x_min":null,"x_max":null,"o":""},"Ş":{"ha":926,"x_min":null,"x_max":null,"o":""},"ş":{"ha":694,"x_min":null,"x_max":null,"o":""},"Ć":{"ha":1003,"x_min":null,"x_max":null,"o":""},"ć":{"ha":694,"x_min":null,"x_max":null,"o":""},"Č":{"ha":1003,"x_min":null,"x_max":null,"o":""},"č":{"ha":694,"x_min":null,"x_max":null,"o":""},"đ":{"ha":772,"x_min":null,"x_max":null,"o":""},"¤":{"ha":772,"x_min":null,"x_max":null,"o":""},"¯":{"ha":767,"x_min":null,"x_max":null,"o":""},"Ā":{"ha":926,"x_min":null,"x_max":null,"o":""},"ā":{"ha":772,"x_min":null,"x_max":null,"o":""},"Ă":{"ha":926,"x_min":null,"x_max":null,"o":""},"ă":{"ha":772,"x_min":null,"x_max":null,"o":""},"Ą":{"ha":926,"x_min":null,"x_max":null,"o":""},"ą":{"ha":772,"x_min":null,"x_max":null,"o":""},"Ĉ":{"ha":1003,"x_min":null,"x_max":null,"o":""},"ĉ":{"ha":694,"x_min":null,"x_max":null,"o":""},"Ċ":{"ha":1003,"x_min":null,"x_max":null,"o":""},"ċ":{"ha":694,"x_min":null,"x_max":null,"o":""},"Ď":{"ha":1003,"x_min":null,"x_max":null,"o":""},"ď":{"ha":854,"x_min":null,"x_max":null,"o":""},"Đ":{"ha":1003,"x_min":null,"x_max":null,"o":""},"Ē":{"ha":926,"x_min":null,"x_max":null,"o":""},"ē":{"ha":772,"x_min":null,"x_max":null,"o":""},"Ĕ":{"ha":926,"x_min":null,"x_max":null,"o":""},"ĕ":{"ha":772,"x_min":null,"x_max":null,"o":""},"Ė":{"ha":926,"x_min":null,"x_max":null,"o":""},"ė":{"ha":772,"x_min":null,"x_max":null,"o":""},"Ę":{"ha":926,"x_min":null,"x_max":null,"o":""},"ę":{"ha":772,"x_min":null,"x_max":null,"o":""},"Ě":{"ha":926,"x_min":null,"x_max":null,"o":""},"ě":{"ha":772,"x_min":null,"x_max":null,"o":""},"Ĝ":{"ha":1080,"x_min":null,"x_max":null,"o":""},"ĝ":{"ha":772,"x_min":null,"x_max":null,"o":""},"Ġ":{"ha":1080,"x_min":null,"x_max":null,"o":""},"ġ":{"ha":772,"x_min":null,"x_max":null,"o":""},"Ģ":{"ha":1080,"x_min":null,"x_max":null,"o":""},"ģ":{"ha":772,"x_min":null,"x_max":null,"o":""},"Ĥ":{"ha":1003,"x_min":null,"x_max":null,"o":""},"ĥ":{"ha":772,"x_min":null,"x_max":null,"o":""},"Ħ":{"ha":1003,"x_min":null,"x_max":null,"o":""},"ħ":{"ha":772,"x_min":null,"x_max":null,"o":""},"Ĩ":{"ha":386,"x_min":null,"x_max":null,"o":""},"ĩ":{"ha":386,"x_min":null,"x_max":null,"o":""},"Ī":{"ha":386,"x_min":null,"x_max":null,"o":""},"ī":{"ha":386,"x_min":null,"x_max":null,"o":""},"Ĭ":{"ha":386,"x_min":null,"x_max":null,"o":""},"ĭ":{"ha":386,"x_min":null,"x_max":null,"o":""},"Į":{"ha":386,"x_min":null,"x_max":null,"o":""},"į":{"ha":309,"x_min":null,"x_max":null,"o":""},"Ĳ":{"ha":1021,"x_min":null,"x_max":null,"o":""},"ĳ":{"ha":616,"x_min":null,"x_max":null,"o":""},"Ĵ":{"ha":694,"x_min":null,"x_max":null,"o":""},"ĵ":{"ha":309,"x_min":null,"x_max":null,"o":""},"Ķ":{"ha":926,"x_min":null,"x_max":null,"o":""},"ķ":{"ha":694,"x_min":null,"x_max":null,"o":""},"ĸ":{"ha":694,"x_min":null,"x_max":null,"o":""},"Ĺ":{"ha":772,"x_min":null,"x_max":null,"o":""},"ĺ":{"ha":309,"x_min":null,"x_max":null,"o":""},"Ļ":{"ha":772,"x_min":null,"x_max":null,"o":""},"ļ":{"ha":309,"x_min":null,"x_max":null,"o":""},"Ľ":{"ha":772,"x_min":null,"x_max":null,"o":""},"ľ":{"ha":405,"x_min":null,"x_max":null,"o":""},"Ŀ":{"ha":772,"x_min":null,"x_max":null,"o":""},"ŀ":{"ha":464,"x_min":null,"x_max":null,"o":""},"Ń":{"ha":1003,"x_min":null,"x_max":null,"o":""},"ń":{"ha":772,"x_min":null,"x_max":null,"o":""},"Ņ":{"ha":1003,"x_min":null,"x_max":null,"o":""},"ņ":{"ha":772,"x_min":null,"x_max":null,"o":""},"Ň":{"ha":1003,"x_min":null,"x_max":null,"o":""},"ň":{"ha":772,"x_min":null,"x_max":null,"o":""},"ŉ":{"ha":839,"x_min":null,"x_max":null,"o":""},"Ŋ":{"ha":1004,"x_min":null,"x_max":null,"o":""},"ŋ":{"ha":772,"x_min":null,"x_max":null,"o":""},"Ō":{"ha":1080,"x_min":null,"x_max":null,"o":""},"ō":{"ha":772,"x_min":null,"x_max":null,"o":""},"Ŏ":{"ha":1080,"x_min":null,"x_max":null,"o":""},"ŏ":{"ha":772,"x_min":null,"x_max":null,"o":""},"Ő":{"ha":1080,"x_min":null,"x_max":null,"o":""},"ő":{"ha":772,"x_min":null,"x_max":null,"o":""},"Ŕ":{"ha":1003,"x_min":null,"x_max":null,"o":""},"ŕ":{"ha":463,"x_min":null,"x_max":null,"o":""},"Ŗ":{"ha":1003,"x_min":null,"x_max":null,"o":""},"ŗ":{"ha":463,"x_min":null,"x_max":null,"o":""},"Ř":{"ha":1003,"x_min":null,"x_max":null,"o":""},"ř":{"ha":463,"x_min":null,"x_max":null,"o":""},"Ś":{"ha":926,"x_min":null,"x_max":null,"o":""},"ś":{"ha":694,"x_min":null,"x_max":null,"o":""},"Ŝ":{"ha":926,"x_min":null,"x_max":null,"o":""},"ŝ":{"ha":694,"x_min":null,"x_max":null,"o":""},"Ţ":{"ha":848,"x_min":null,"x_max":null,"o":""},"ţ":{"ha":386,"x_min":null,"x_max":null,"o":""},"Ť":{"ha":848,"x_min":null,"x_max":null,"o":""},"ť":{"ha":521,"x_min":null,"x_max":null,"o":""},"Ŧ":{"ha":848,"x_min":null,"x_max":null,"o":""},"ŧ":{"ha":386,"x_min":null,"x_max":null,"o":""},"Ũ":{"ha":1003,"x_min":null,"x_max":null,"o":""},"ũ":{"ha":772,"x_min":null,"x_max":null,"o":""},"Ū":{"ha":1003,"x_min":null,"x_max":null,"o":""},"ū":{"ha":772,"x_min":null,"x_max":null,"o":""},"Ŭ":{"ha":1003,"x_min":null,"x_max":null,"o":""},"ŭ":{"ha":772,"x_min":null,"x_max":null,"o":""},"Ů":{"ha":1003,"x_min":null,"x_max":null,"o":""},"ů":{"ha":772,"x_min":null,"x_max":null,"o":""},"Ű":{"ha":1003,"x_min":null,"x_max":null,"o":""},"ű":{"ha":772,"x_min":null,"x_max":null,"o":""},"Ų":{"ha":1003,"x_min":null,"x_max":null,"o":""},"ų":{"ha":772,"x_min":null,"x_max":null,"o":""},"Ŵ":{"ha":1311,"x_min":null,"x_max":null,"o":""},"ŵ":{"ha":1003,"x_min":null,"x_max":null,"o":""},"Ŷ":{"ha":926,"x_min":null,"x_max":null,"o":""},"ŷ":{"ha":694,"x_min":null,"x_max":null,"o":""},"Ź":{"ha":848,"x_min":null,"x_max":null,"o":""},"ź":{"ha":694,"x_min":null,"x_max":null,"o":""},"Ż":{"ha":848,"x_min":null,"x_max":null,"o":""},"ż":{"ha":694,"x_min":null,"x_max":null,"o":""},"ſ":{"ha":309,"x_min":null,"x_max":null,"o":""},"Ǻ":{"ha":926,"x_min":null,"x_max":null,"o":""},"ǻ":{"ha":772,"x_min":null,"x_max":null,"o":""},"Ǽ":{"ha":1389,"x_min":null,"x_max":null,"o":""},"ǽ":{"ha":1235,"x_min":null,"x_max":null,"o":""},"Ǿ":{"ha":1080,"x_min":null,"x_max":null,"o":""},"ǿ":{"ha":848,"x_min":null,"x_max":null,"o":""},"΄":{"ha":463,"x_min":null,"x_max":null,"o":""},"΅":{"ha":463,"x_min":null,"x_max":null,"o":""},"Ά":{"ha":927,"x_min":null,"x_max":null,"o":""},"·":{"ha":386,"x_min":null,"x_max":null,"o":""},"Έ":{"ha":1089,"x_min":null,"x_max":null,"o":""},"Ή":{"ha":1164,"x_min":null,"x_max":null,"o":""},"Ί":{"ha":533,"x_min":null,"x_max":null,"o":""},"Ό":{"ha":1076,"x_min":null,"x_max":null,"o":""},"Ύ":{"ha":1188,"x_min":null,"x_max":null,"o":""},"Ώ":{"ha":1045,"x_min":null,"x_max":null,"o":""},"ΐ":{"ha":309,"x_min":null,"x_max":null,"o":""},"Α":{"ha":926,"x_min":null,"x_max":null,"o":""},"Β":{"ha":926,"x_min":null,"x_max":null,"o":""},"Γ":{"ha":765,"x_min":null,"x_max":null,"o":""},"Δ":{"ha":928,"x_min":null,"x_max":null,"o":""},"Ε":{"ha":926,"x_min":null,"x_max":null,"o":""},"Ζ":{"ha":848,"x_min":null,"x_max":null,"o":""},"Η":{"ha":1003,"x_min":null,"x_max":null,"o":""},"Θ":{"ha":1080,"x_min":null,"x_max":null,"o":""},"Ι":{"ha":386,"x_min":null,"x_max":null,"o":""},"Κ":{"ha":926,"x_min":null,"x_max":null,"o":""},"Λ":{"ha":928,"x_min":null,"x_max":null,"o":""},"Μ":{"ha":1157,"x_min":null,"x_max":null,"o":""},"Ν":{"ha":1003,"x_min":null,"x_max":null,"o":""},"Ξ":{"ha":903,"x_min":null,"x_max":null,"o":""},"Ο":{"ha":1080,"x_min":null,"x_max":null,"o":""},"Π":{"ha":1003,"x_min":null,"x_max":null,"o":""},"Ρ":{"ha":926,"x_min":null,"x_max":null,"o":""},"Σ":{"ha":859,"x_min":null,"x_max":null,"o":""},"Τ":{"ha":848,"x_min":null,"x_max":null,"o":""},"Υ":{"ha":926,"x_min":null,"x_max":null,"o":""},"Φ":{"ha":1108,"x_min":null,"x_max":null,"o":""},"Χ":{"ha":926,"x_min":null,"x_max":null,"o":""},"Ψ":{"ha":1160,"x_min":null,"x_max":null,"o":""},"Ω":{"ha":1038,"x_min":null,"x_max":null,"o":""},"Ϊ":{"ha":386,"x_min":null,"x_max":null,"o":""},"Ϋ":{"ha":926,"x_min":null,"x_max":null,"o":""},"ά":{"ha":803,"x_min":null,"x_max":null,"o":""},"έ":{"ha":619,"x_min":null,"x_max":null,"o":""},"ή":{"ha":772,"x_min":null,"x_max":null,"o":""},"ί":{"ha":309,"x_min":null,"x_max":null,"o":""},"ΰ":{"ha":760,"x_min":null,"x_max":null,"o":""},"α":{"ha":803,"x_min":null,"x_max":null,"o":""},"β":{"ha":799,"x_min":null,"x_max":null,"o":""},"γ":{"ha":694,"x_min":null,"x_max":null,"o":""},"δ":{"ha":773,"x_min":null,"x_max":null,"o":""},"ε":{"ha":619,"x_min":null,"x_max":null,"o":""},"ζ":{"ha":612,"x_min":null,"x_max":null,"o":""},"η":{"ha":772,"x_min":null,"x_max":null,"o":""},"θ":{"ha":772,"x_min":null,"x_max":null,"o":""},"ι":{"ha":309,"x_min":null,"x_max":null,"o":""},"κ":{"ha":694,"x_min":null,"x_max":null,"o":""},"λ":{"ha":694,"x_min":null,"x_max":null,"o":""},"μ":{"ha":800,"x_min":null,"x_max":null,"o":""},"ν":{"ha":694,"x_min":null,"x_max":null,"o":""},"ξ":{"ha":622,"x_min":null,"x_max":null,"o":""},"ο":{"ha":772,"x_min":null,"x_max":null,"o":""},"π":{"ha":958,"x_min":null,"x_max":null,"o":""},"ρ":{"ha":790,"x_min":null,"x_max":null,"o":""},"ς":{"ha":669,"x_min":null,"x_max":null,"o":""},"σ":{"ha":857,"x_min":null,"x_max":null,"o":""},"τ":{"ha":549,"x_min":null,"x_max":null,"o":""},"υ":{"ha":760,"x_min":null,"x_max":null,"o":""},"φ":{"ha":901,"x_min":null,"x_max":null,"o":""},"χ":{"ha":729,"x_min":null,"x_max":null,"o":""},"ψ":{"ha":990,"x_min":null,"x_max":null,"o":""},"ω":{"ha":1084,"x_min":null,"x_max":null,"o":""},"ϊ":{"ha":309,"x_min":null,"x_max":null,"o":""},"ϋ":{"ha":760,"x_min":null,"x_max":null,"o":""},"ό":{"ha":772,"x_min":null,"x_max":null,"o":""},"ύ":{"ha":760,"x_min":null,"x_max":null,"o":""},"ώ":{"ha":1084,"x_min":null,"x_max":null,"o":""},"Ё":{"ha":927,"x_min":null,"x_max":null,"o":""},"Ђ":{"ha":1201,"x_min":null,"x_max":null,"o":""},"Ѓ":{"ha":752,"x_min":null,"x_max":null,"o":""},"Є":{"ha":998,"x_min":null,"x_max":null,"o":""},"Ѕ":{"ha":926,"x_min":null,"x_max":null,"o":""},"І":{"ha":386,"x_min":null,"x_max":null,"o":""},"Ї":{"ha":386,"x_min":null,"x_max":null,"o":""},"Ј":{"ha":694,"x_min":null,"x_max":null,"o":""},"Љ":{"ha":1468,"x_min":null,"x_max":null,"o":""},"Њ":{"ha":1403,"x_min":null,"x_max":null,"o":""},"Ћ":{"ha":1186,"x_min":null,"x_max":null,"o":""},"Ќ":{"ha":809,"x_min":null,"x_max":null,"o":""},"Ў":{"ha":882,"x_min":null,"x_max":null,"o":""},"Џ":{"ha":998,"x_min":null,"x_max":null,"o":""},"А":{"ha":926,"x_min":null,"x_max":null,"o":""},"Б":{"ha":911,"x_min":null,"x_max":null,"o":""},"В":{"ha":926,"x_min":null,"x_max":null,"o":""},"Г":{"ha":752,"x_min":null,"x_max":null,"o":""},"Д":{"ha":941,"x_min":null,"x_max":null,"o":""},"Е":{"ha":926,"x_min":null,"x_max":null,"o":""},"Ж":{"ha":1282,"x_min":null,"x_max":null,"o":""},"З":{"ha":839,"x_min":null,"x_max":null,"o":""},"И":{"ha":998,"x_min":null,"x_max":null,"o":""},"Й":{"ha":998,"x_min":null,"x_max":null,"o":""},"К":{"ha":809,"x_min":null,"x_max":null,"o":""},"Л":{"ha":911,"x_min":null,"x_max":null,"o":""},"М":{"ha":1157,"x_min":null,"x_max":null,"o":""},"Н":{"ha":1003,"x_min":null,"x_max":null,"o":""},"О":{"ha":1080,"x_min":null,"x_max":null,"o":""},"П":{"ha":998,"x_min":null,"x_max":null,"o":""},"Р":{"ha":926,"x_min":null,"x_max":null,"o":""},"С":{"ha":1003,"x_min":null,"x_max":null,"o":""},"Т":{"ha":848,"x_min":null,"x_max":null,"o":""},"У":{"ha":882,"x_min":null,"x_max":null,"o":""},"Ф":{"ha":1056,"x_min":null,"x_max":null,"o":""},"Х":{"ha":926,"x_min":null,"x_max":null,"o":""},"Ц":{"ha":1027,"x_min":null,"x_max":null,"o":""},"Ч":{"ha":926,"x_min":null,"x_max":null,"o":""},"Ш":{"ha":1273,"x_min":null,"x_max":null,"o":""},"Щ":{"ha":1302,"x_min":null,"x_max":null,"o":""},"Ъ":{"ha":1099,"x_min":null,"x_max":null,"o":""},"Ы":{"ha":1230,"x_min":null,"x_max":null,"o":""},"Ь":{"ha":911,"x_min":null,"x_max":null,"o":""},"Э":{"ha":998,"x_min":null,"x_max":null,"o":""},"Ю":{"ha":1403,"x_min":null,"x_max":null,"o":""},"Я":{"ha":1003,"x_min":null,"x_max":null,"o":""},"а":{"ha":772,"x_min":null,"x_max":null,"o":""},"б":{"ha":795,"x_min":null,"x_max":null,"o":""},"в":{"ha":738,"x_min":null,"x_max":null,"o":""},"г":{"ha":507,"x_min":null,"x_max":null,"o":""},"д":{"ha":810,"x_min":null,"x_max":null,"o":""},"е":{"ha":772,"x_min":null,"x_max":null,"o":""},"ж":{"ha":929,"x_min":null,"x_max":null,"o":""},"з":{"ha":637,"x_min":null,"x_max":null,"o":""},"и":{"ha":776,"x_min":null,"x_max":null,"o":""},"й":{"ha":776,"x_min":null,"x_max":null,"o":""},"к":{"ha":608,"x_min":null,"x_max":null,"o":""},"л":{"ha":810,"x_min":null,"x_max":null,"o":""},"м":{"ha":955,"x_min":null,"x_max":null,"o":""},"н":{"ha":767,"x_min":null,"x_max":null,"o":""},"о":{"ha":772,"x_min":null,"x_max":null,"o":""},"п":{"ha":752,"x_min":null,"x_max":null,"o":""},"р":{"ha":772,"x_min":null,"x_max":null,"o":""},"с":{"ha":694,"x_min":null,"x_max":null,"o":""},"т":{"ha":636,"x_min":null,"x_max":null,"o":""},"у":{"ha":694,"x_min":null,"x_max":null,"o":""},"ф":{"ha":1143,"x_min":null,"x_max":null,"o":""},"х":{"ha":694,"x_min":null,"x_max":null,"o":""},"ц":{"ha":795,"x_min":null,"x_max":null,"o":""},"ч":{"ha":724,"x_min":null,"x_max":null,"o":""},"ш":{"ha":1114,"x_min":null,"x_max":null,"o":""},"щ":{"ha":1143,"x_min":null,"x_max":null,"o":""},"ъ":{"ha":868,"x_min":null,"x_max":null,"o":""},"ы":{"ha":998,"x_min":null,"x_max":null,"o":""},"ь":{"ha":724,"x_min":null,"x_max":null,"o":""},"э":{"ha":709,"x_min":null,"x_max":null,"o":""},"ю":{"ha":1042,"x_min":null,"x_max":null,"o":""},"я":{"ha":752,"x_min":null,"x_max":null,"o":""},"ё":{"ha":772,"x_min":null,"x_max":null,"o":""},"ђ":{"ha":772,"x_min":null,"x_max":null,"o":""},"ѓ":{"ha":507,"x_min":null,"x_max":null,"o":""},"є":{"ha":709,"x_min":null,"x_max":null,"o":""},"ѕ":{"ha":694,"x_min":null,"x_max":null,"o":""},"і":{"ha":309,"x_min":null,"x_max":null,"o":""},"ї":{"ha":386,"x_min":null,"x_max":null,"o":""},"ј":{"ha":309,"x_min":null,"x_max":null,"o":""},"љ":{"ha":1259,"x_min":null,"x_max":null,"o":""},"њ":{"ha":1128,"x_min":null,"x_max":null,"o":""},"ћ":{"ha":772,"x_min":null,"x_max":null,"o":""},"ќ":{"ha":608,"x_min":null,"x_max":null,"o":""},"ў":{"ha":694,"x_min":null,"x_max":null,"o":""},"џ":{"ha":767,"x_min":null,"x_max":null,"o":""},"Ґ":{"ha":679,"x_min":null,"x_max":null,"o":""},"ґ":{"ha":571,"x_min":null,"x_max":null,"o":""},"Ẁ":{"ha":1311,"x_min":null,"x_max":null,"o":""},"ẁ":{"ha":1003,"x_min":null,"x_max":null,"o":""},"Ẃ":{"ha":1311,"x_min":null,"x_max":null,"o":""},"ẃ":{"ha":1003,"x_min":null,"x_max":null,"o":""},"Ẅ":{"ha":1311,"x_min":null,"x_max":null,"o":""},"ẅ":{"ha":1003,"x_min":null,"x_max":null,"o":""},"Ỳ":{"ha":926,"x_min":null,"x_max":null,"o":""},"ỳ":{"ha":694,"x_min":null,"x_max":null,"o":""},"―":{"ha":1389,"x_min":null,"x_max":null,"o":""},"‗":{"ha":767,"x_min":null,"x_max":null,"o":""},"‛":{"ha":309,"x_min":null,"x_max":null,"o":""},"′":{"ha":260,"x_min":null,"x_max":null,"o":""},"″":{"ha":492,"x_min":null,"x_max":null,"o":""},"‼":{"ha":694,"x_min":null,"x_max":null,"o":""},"‾":{"ha":463,"x_min":null,"x_max":null,"o":""},"ⁿ":{"ha":507,"x_min":null,"x_max":null,"o":""},"₤":{"ha":772,"x_min":null,"x_max":null,"o":""},"₧":{"ha":1519,"x_min":null,"x_max":null,"o":""},"℅":{"ha":1230,"x_min":null,"x_max":null,"o":""},"ℓ":{"ha":449,"x_min":null,"x_max":null,"o":""},"№":{"ha":1490,"x_min":null,"x_max":null,"o":""},"℮":{"ha":833,"x_min":null,"x_max":null,"o":""},"⅛":{"ha":1158,"x_min":null,"x_max":null,"o":""},"⅜":{"ha":1158,"x_min":null,"x_max":null,"o":""},"⅝":{"ha":1158,"x_min":null,"x_max":null,"o":""},"⅞":{"ha":1158,"x_min":null,"x_max":null,"o":""},"←":{"ha":1389,"x_min":null,"x_max":null,"o":""},"↑":{"ha":694,"x_min":null,"x_max":null,"o":""},"→":{"ha":1389,"x_min":null,"x_max":null,"o":""},"↓":{"ha":694,"x_min":null,"x_max":null,"o":""},"↔":{"ha":1389,"x_min":null,"x_max":null,"o":""},"↕":{"ha":694,"x_min":null,"x_max":null,"o":""},"↨":{"ha":694,"x_min":null,"x_max":null,"o":""},"∟":{"ha":1360,"x_min":null,"x_max":null,"o":""},"∩":{"ha":998,"x_min":null,"x_max":null,"o":""},"≡":{"ha":810,"x_min":null,"x_max":null,"o":""},"⌂":{"ha":839,"x_min":null,"x_max":null,"o":""},"⌐":{"ha":811,"x_min":null,"x_max":null,"o":""},"⌠":{"ha":839,"x_min":null,"x_max":null,"o":""},"⌡":{"ha":839,"x_min":null,"x_max":null,"o":""},"─":{"ha":984,"x_min":null,"x_max":null,"o":""},"│":{"ha":868,"x_min":null,"x_max":null,"o":""},"┌":{"ha":984,"x_min":null,"x_max":null,"o":""},"┐":{"ha":984,"x_min":null,"x_max":null,"o":""},"└":{"ha":984,"x_min":null,"x_max":null,"o":""},"┘":{"ha":984,"x_min":null,"x_max":null,"o":""},"├":{"ha":984,"x_min":null,"x_max":null,"o":""},"┤":{"ha":984,"x_min":null,"x_max":null,"o":""},"┬":{"ha":984,"x_min":null,"x_max":null,"o":""},"┴":{"ha":984,"x_min":null,"x_max":null,"o":""},"┼":{"ha":984,"x_min":null,"x_max":null,"o":""},"═":{"ha":984,"x_min":null,"x_max":null,"o":""},"║":{"ha":984,"x_min":null,"x_max":null,"o":""},"╒":{"ha":984,"x_min":null,"x_max":null,"o":""},"╓":{"ha":984,"x_min":null,"x_max":null,"o":""},"╔":{"ha":984,"x_min":null,"x_max":null,"o":""},"╕":{"ha":984,"x_min":null,"x_max":null,"o":""},"╖":{"ha":984,"x_min":null,"x_max":null,"o":""},"╗":{"ha":984,"x_min":null,"x_max":null,"o":""},"╘":{"ha":984,"x_min":null,"x_max":null,"o":""},"╙":{"ha":984,"x_min":null,"x_max":null,"o":""},"╚":{"ha":984,"x_min":null,"x_max":null,"o":""},"╛":{"ha":984,"x_min":null,"x_max":null,"o":""},"╜":{"ha":984,"x_min":null,"x_max":null,"o":""},"╝":{"ha":984,"x_min":null,"x_max":null,"o":""},"╞":{"ha":984,"x_min":null,"x_max":null,"o":""},"╟":{"ha":984,"x_min":null,"x_max":null,"o":""},"╠":{"ha":984,"x_min":null,"x_max":null,"o":""},"╡":{"ha":984,"x_min":null,"x_max":null,"o":""},"╢":{"ha":984,"x_min":null,"x_max":null,"o":""},"╣":{"ha":984,"x_min":null,"x_max":null,"o":""},"╤":{"ha":984,"x_min":null,"x_max":null,"o":""},"╥":{"ha":984,"x_min":null,"x_max":null,"o":""},"╦":{"ha":984,"x_min":null,"x_max":null,"o":""},"╧":{"ha":984,"x_min":null,"x_max":null,"o":""},"╨":{"ha":984,"x_min":null,"x_max":null,"o":""},"╩":{"ha":984,"x_min":null,"x_max":null,"o":""},"╪":{"ha":984,"x_min":null,"x_max":null,"o":""},"╫":{"ha":984,"x_min":null,"x_max":null,"o":""},"╬":{"ha":984,"x_min":null,"x_max":null,"o":""},"▀":{"ha":984,"x_min":null,"x_max":null,"o":""},"▄":{"ha":984,"x_min":null,"x_max":null,"o":""},"█":{"ha":984,"x_min":null,"x_max":null,"o":""},"▌":{"ha":984,"x_min":null,"x_max":null,"o":""},"▐":{"ha":984,"x_min":null,"x_max":null,"o":""},"░":{"ha":984,"x_min":null,"x_max":null,"o":""},"▒":{"ha":984,"x_min":null,"x_max":null,"o":""},"▓":{"ha":1013,"x_min":null,"x_max":null,"o":""},"■":{"ha":839,"x_min":null,"x_max":null,"o":""},"□":{"ha":839,"x_min":null,"x_max":null,"o":""},"▪":{"ha":492,"x_min":null,"x_max":null,"o":""},"▫":{"ha":492,"x_min":null,"x_max":null,"o":""},"▬":{"ha":1389,"x_min":null,"x_max":null,"o":""},"▲":{"ha":1375,"x_min":null,"x_max":null,"o":""},"►":{"ha":1375,"x_min":null,"x_max":null,"o":""},"▼":{"ha":1375,"x_min":null,"x_max":null,"o":""},"◄":{"ha":1375,"x_min":null,"x_max":null,"o":""},"○":{"ha":839,"x_min":null,"x_max":null,"o":""},"●":{"ha":839,"x_min":null,"x_max":null,"o":""},"◘":{"ha":839,"x_min":null,"x_max":null,"o":""},"◙":{"ha":839,"x_min":null,"x_max":null,"o":""},"◦":{"ha":492,"x_min":null,"x_max":null,"o":""},"☺":{"ha":1418,"x_min":null,"x_max":null,"o":""},"☻":{"ha":1461,"x_min":null,"x_max":null,"o":""},"☼":{"ha":1273,"x_min":null,"x_max":null,"o":""},"♀":{"ha":1042,"x_min":null,"x_max":null,"o":""},"♂":{"ha":1042,"x_min":null,"x_max":null,"o":""},"♠":{"ha":738,"x_min":null,"x_max":null,"o":""},"♣":{"ha":911,"x_min":null,"x_max":null,"o":""},"♥":{"ha":825,"x_min":null,"x_max":null,"o":""},"♦":{"ha":709,"x_min":null,"x_max":null,"o":""},"♪":{"ha":694,"x_min":null,"x_max":null,"o":""},"♫":{"ha":1042,"x_min":null,"x_max":null,"o":""},"":{"ha":463,"x_min":null,"x_max":null,"o":""},"":{"ha":463,"x_min":null,"x_max":null,"o":""}}}
